<svg width="640" height="511" viewBox="0 0 640 511" fill="none" xmlns="http://www.w3.org/2000/svg">
<path d="M320 0C234.667 0 181.333 56.7411 160 170.223C192 113.482 229.333 92.2043 272 106.39C296.344 114.483 313.743 137.969 333.003 163.968C364.377 206.319 400.689 255.335 480 255.335C565.333 255.335 618.667 198.594 640 85.1117C608 141.853 570.667 163.131 528 148.945C503.656 140.852 486.257 117.366 466.997 91.3674C435.623 49.0165 399.311 0 320 0ZM160 255.335C74.6667 255.335 21.3333 312.076 0 425.558C32 368.817 69.3333 347.539 112 361.725C136.344 369.818 153.743 393.304 173.003 419.303C204.377 461.654 240.689 510.67 320 510.67C405.333 510.67 458.667 453.929 480 340.447C448 397.188 410.667 418.466 368 404.281C343.656 396.187 326.257 372.701 306.997 346.702C275.623 304.352 239.311 255.335 160 255.335Z" fill="white"/>
</svg>
